ISO-10303-21;
HEADER;
FILE_DESCRIPTION (( 'STEP AP214' ),
    '1' );
FILE_NAME ('ThermallerPowerSwitchCAP.STEP',
    '2026-05-27T09:45:47',
    ( '' ),
    ( '' ),
    'SwSTEP 2.0',
    'SolidWorks 2025',
    '' );
FILE_SCHEMA (( 'AUTOMOTIVE_DESIGN' ));
ENDSEC;

DATA;
#1 = AXIS2_PLACEMENT_3D ( 'NONE', #341, #616, #606 ) ;
#2 = VERTEX_POINT ( 'NONE', #204 ) ;
#3 = LINE ( 'NONE', #590, #513 ) ;
#4 = EDGE_CURVE ( 'NONE', #18, #552, #158, .T. ) ;
#5 = DIRECTION ( 'NONE',  ( -1.000000000000000000, 4.480807675519360734E-17, -3.239845002813822172E-16 ) ) ;
#6 = SHAPE_DEFINITION_REPRESENTATION ( #504, #125 ) ;
#7 = ORIENTED_EDGE ( 'NONE', *, *, #725, .T. ) ;
#8 = LINE ( 'NONE', #83, #568 ) ;
#9 = DIRECTION ( 'NONE',  ( -1.000000000000000000, 0.000000000000000000, 0.000000000000000000 ) ) ;
#10 = ORIENTED_EDGE ( 'NONE', *, *, #27, .T. ) ;
#11 = DIRECTION ( 'NONE',  ( 0.000000000000000000, -0.3420201433256704893, -0.9396926207859077618 ) ) ;
#12 = DIRECTION ( 'NONE',  ( -0.000000000000000000, -0.3420201433256705448, -0.9396926207859077618 ) ) ;
#13 = VECTOR ( 'NONE', #199, 1000.000000000000000 ) ;
#14 = AXIS2_PLACEMENT_3D ( 'NONE', #586, #11, #257 ) ;
#15 = ORIENTED_EDGE ( 'NONE', *, *, #297, .T. ) ;
#16 = CARTESIAN_POINT ( 'NONE',  ( 5.599999999999998757, -141.6211380432356464, 30.12775414951730824 ) ) ;
#17 = LINE ( 'NONE', #21, #659 ) ;
#18 = VERTEX_POINT ( 'NONE', #738 ) ;
#19 = EDGE_LOOP ( 'NONE', ( #441, #815, #834, #150 ) ) ;
#20 = CARTESIAN_POINT ( 'NONE',  ( -1.499999999999997335, -143.7223187139533991, 31.95669914294996161 ) ) ;
#21 = CARTESIAN_POINT ( 'NONE',  ( -3.900000000000003908, -144.4740728105820722, 32.23031525761048499 ) ) ;
#22 = CARTESIAN_POINT ( 'NONE',  ( -1.900000000000009459, -144.9515171144454087, 36.02229519915479727 ) ) ;
#23 = ORIENTED_EDGE ( 'NONE', *, *, #489, .F. ) ;
#24 = LINE ( 'NONE', #167, #363 ) ;
#25 = EDGE_CURVE ( 'NONE', #552, #524, #670, .T. ) ;
#26 = CARTESIAN_POINT ( 'NONE',  ( -1.499999999999998002, -144.4740728105821006, 32.23031525761049920 ) ) ;
#27 = EDGE_CURVE ( 'NONE', #466, #626, #409, .T. ) ;
#28 = CARTESIAN_POINT ( 'NONE',  ( -7.600000000000002309, -155.8492290146044184, 35.30635575352723521 ) ) ;
#29 = ORIENTED_EDGE ( 'NONE', *, *, #25, .F. ) ;
#30 = VECTOR ( 'NONE', #61, 999.9999999999998863 ) ;
#31 = CARTESIAN_POINT ( 'NONE',  ( 2.900000000000009237, -142.3542381406507218, 35.71546962609362907 ) ) ;
#32 = DIRECTION ( 'NONE',  ( 1.529150442999980710E-16, 0.9396926207859077618, -0.3420201433256705448 ) ) ;
#33 = EDGE_CURVE ( 'NONE', #742, #264, #770, .T. ) ;
#34 = CARTESIAN_POINT ( 'NONE',  ( -4.900000000000005684, -142.3087800036587680, 35.84036483100951642 ) ) ;
#35 = ORIENTED_EDGE ( 'NONE', *, *, #192, .T. ) ;
#36 = CARTESIAN_POINT ( 'NONE',  ( 2.873130743732153825, -143.4706985214017436, 32.64734874176952673 ) ) ;
#37 = CARTESIAN_POINT ( 'NONE',  ( 5.599999999999998757, -141.6211380432356748, 30.12775414951729758 ) ) ;
#38 = EDGE_LOOP ( 'NONE', ( #108, #506, #690, #344 ) ) ;
#39 = EDGE_CURVE ( 'NONE', #749, #641, #86, .T. ) ;
#40 = ORIENTED_EDGE ( 'NONE', *, *, #605, .T. ) ;
#41 = FACE_OUTER_BOUND ( 'NONE', #218, .T. ) ;
#42 = CARTESIAN_POINT ( 'NONE',  ( 2.900000000000006573, -153.6916182002341884, 39.84193850234521506 ) ) ;
#43 = CARTESIAN_POINT ( 'NONE',  ( 1.900000000000007905, -140.9370977565843930, 32.00713939108914019 ) ) ;
#44 = ORIENTED_EDGE ( 'NONE', *, *, #476, .T. ) ;
#45 = AXIS2_PLACEMENT_3D ( 'NONE', #469, #5, #788 ) ;
#46 = VECTOR ( 'NONE', #798, 1000.000000000000000 ) ;
#47 = ORIENTED_EDGE ( 'NONE', *, *, #131, .F. ) ;
#48 = LINE ( 'NONE', #633, #431 ) ;
#49 = ORIENTED_EDGE ( 'NONE', *, *, #212, .F. ) ;
#50 = CARTESIAN_POINT ( 'NONE',  ( -3.900000000000003908, -155.0596987735368657, 36.08316801920155825 ) ) ;
#51 = EDGE_CURVE ( 'NONE', #87, #752, #386, .T. ) ;
#52 = VERTEX_POINT ( 'NONE', #800 ) ;
#53 = PLANE ( 'NONE',  #277 ) ;
#54 = VECTOR ( 'NONE', #77, 1000.000000000000000 ) ;
#55 = DIRECTION ( 'NONE',  ( 3.706674093967524344E-16, -0.3420201433256704893, -0.9396926207859077618 ) ) ;
#56 = ORIENTED_EDGE ( 'NONE', *, *, #424, .T. ) ;
#57 = EDGE_CURVE ( 'NONE', #92, #248, #735, .T. ) ;
#58 = CYLINDRICAL_SURFACE ( 'NONE', #347, 1.000000000000004219 ) ;
#59 = DIRECTION ( 'NONE',  ( -0.000000000000000000, 0.000000000000000000, -1.000000000000000000 ) ) ;
#60 = ORIENTED_EDGE ( 'NONE', *, *, #266, .T. ) ;
#61 = DIRECTION ( 'NONE',  ( -0.000000000000000000, 0.9396926207859083169, -0.3420201433256692680 ) ) ;
#62 = CARTESIAN_POINT ( 'NONE',  ( -3.900000000000002132, -142.1315746096108512, 36.69860450101442240 ) ) ;
#63 = ORIENTED_EDGE ( 'NONE', *, *, #493, .F. ) ;
#64 = ADVANCED_FACE ( 'NONE', ( #420 ), #339, .F. ) ;
#65 = LINE ( 'NONE', #16, #442 ) ;
#66 = PLANE ( 'NONE',  #290 ) ;
#67 = VECTOR ( 'NONE', #258, 999.9999999999998863 ) ;
#68 = VECTOR ( 'NONE', #791, 1000.000000000000000 ) ;
#69 = ORIENTED_EDGE ( 'NONE', *, *, #33, .T. ) ;
#70 = CARTESIAN_POINT ( 'NONE',  ( -7.600000000000002309, -141.6211380432356748, 30.12775414951729758 ) ) ;
#71 = DIRECTION ( 'NONE',  ( 1.529150442999980710E-16, 0.9396926207859077618, -0.3420201433256704893 ) ) ;
#72 = VERTEX_POINT ( 'NONE', #102 ) ;
#73 = FACE_OUTER_BOUND ( 'NONE', #121, .T. ) ;
#74 = DIRECTION ( 'NONE',  ( -1.000000000000000000, 0.000000000000000000, 0.000000000000000000 ) ) ;
#75 = PRODUCT_RELATED_PRODUCT_CATEGORY ( 'part', '', ( #636 ) ) ;
#76 = ORIENTED_EDGE ( 'NONE', *, *, #313, .T. ) ;
#77 = DIRECTION ( 'NONE',  ( 1.529150442999980710E-16, 0.9396926207859077618, -0.3420201433256705448 ) ) ;
#78 = LINE ( 'NONE', #403, #555 ) ;
#79 = VECTOR ( 'NONE', #211, 1000.000000000000000 ) ;
#80 = AXIS2_PLACEMENT_3D ( 'NONE', #235, #300, #240 ) ;
#81 = DIRECTION ( 'NONE',  ( 1.803374990528834103E-16, 0.9396926207859090940, -0.3420201433256668810 ) ) ;
#82 = ORIENTED_EDGE ( 'NONE', *, *, #233, .T. ) ;
#83 = CARTESIAN_POINT ( 'NONE',  ( 5.599999999999998757, -140.5874761603712102, 29.75153199185908548 ) ) ;
#84 = DIRECTION ( 'NONE',  ( 0.000000000000000000, 0.3420201433256816470, 0.9396926207859037650 ) ) ;
#85 = CARTESIAN_POINT ( 'NONE',  ( -4.156854211290853307, -143.7774935485603578, 32.00316195141940767 ) ) ;
#86 = B_SPLINE_CURVE_WITH_KNOTS ( 'NONE', 3,
 ( #666, #91, #85, #208, #786, #465, #529, #214, #143, #163 ),
 .UNSPECIFIED., .F., .F.,
 ( 4, 2, 2, 2, 4 ),
 ( 4.336808689942017255E-19, 0.0003931127940244839533, 0.0007862255880489674728, 0.001179338382073451047, 0.001572451176097934512 ),
 .UNSPECIFIED. ) ;
#87 = VERTEX_POINT ( 'NONE', #273 ) ;
#88 = CYLINDRICAL_SURFACE ( 'NONE', #1, 1.000000000000004219 ) ;
#89 = EDGE_CURVE ( 'NONE', #827, #72, #343, .T. ) ;
#90 = LINE ( 'NONE', #617, #594 ) ;
#91 = CARTESIAN_POINT ( 'NONE',  ( -4.028648564982178826, -143.8104616347817171, 31.98878054249276914 ) ) ;
#92 = VERTEX_POINT ( 'NONE', #348 ) ;
#93 = ADVANCED_FACE ( 'NONE', ( #462 ), #217, .F. ) ;
#94 = DIRECTION ( 'NONE',  ( -0.000000000000000000, 0.9396926207859083169, -0.3420201433256692680 ) ) ;
#95 = CARTESIAN_POINT ( 'NONE',  ( -1.900000000000009459, -144.9515171144454087, 36.02229519915479727 ) ) ;
#96 = AXIS2_PLACEMENT_3D ( 'NONE', #505, #622, #383 ) ;
#97 = DIRECTION ( 'NONE',  ( -0.000000000000000000, 0.9396926207859083169, -0.3420201433256692680 ) ) ;
#98 = AXIS2_PLACEMENT_3D ( 'NONE', #202, #140, #389 ) ;
#99 = ORIENTED_EDGE ( 'NONE', *, *, #270, .T. ) ;
#100 = LINE ( 'NONE', #280, #68 ) ;
#101 = CARTESIAN_POINT ( 'NONE',  ( 2.028676356727777463, -142.1003541751091461, 36.68724119215491442 ) ) ;
#102 = CARTESIAN_POINT ( 'NONE',  ( -1.900000000000000133, -139.6982237877244586, 32.19473280590244713 ) ) ;
#103 = VERTEX_POINT ( 'NONE', #251 ) ;
#104 = LINE ( 'NONE', #428, #46 ) ;
#105 = PLANE ( 'NONE',  #96 ) ;
#106 = ORIENTED_EDGE ( 'NONE', *, *, #751, .T. ) ;
#107 = DIRECTION ( 'NONE',  ( 1.734723475976794867E-15, 0.9396926207859079838, -0.3420201433256702117 ) ) ;
#108 = ORIENTED_EDGE ( 'NONE', *, *, #266, .F. ) ;
#109 = AXIS2_PLACEMENT_3D ( 'NONE', #687, #803, #417 ) ;
#110 = CARTESIAN_POINT ( 'NONE',  ( 5.599999999999997868, -139.2269970399559327, 36.70560249501868100 ) ) ;
#111 = ORIENTED_EDGE ( 'NONE', *, *, #255, .T. ) ;
#112 = EDGE_CURVE ( 'NONE', #557, #215, #780, .T. ) ;
#113 = CARTESIAN_POINT ( 'NONE',  ( 1.900000000000005684, -153.6916182002341884, 39.84193850234521506 ) ) ;
#114 = ORIENTED_EDGE ( 'NONE', *, *, #212, .T. ) ;
#115 = FACE_OUTER_BOUND ( 'NONE', #19, .T. ) ;
#116 = CARTESIAN_POINT ( 'NONE',  ( -1.900000000000008349, -139.0825875297382197, 33.88617952331710370 ) ) ;
#117 = ORIENTED_EDGE ( 'NONE', *, *, #664, .F. ) ;
#118 = LINE ( 'NONE', #823, #227 ) ;
#119 = LINE ( 'NONE', #306, #361 ) ;
#120 = ADVANCED_FACE ( 'NONE', ( #314 ), #379, .T. ) ;
#121 = EDGE_LOOP ( 'NONE', ( #629, #793, #545, #35 ) ) ;
#122 = CARTESIAN_POINT ( 'NONE',  ( 2.900000000000009681, -140.9370977565843930, 32.00713939108914019 ) ) ;
#123 = DIRECTION ( 'NONE',  ( -1.529150442999980957E-16, -0.9396926207859078728, 0.3420201433256704893 ) ) ;
#124 = EDGE_CURVE ( 'NONE', #2, #615, #759, .T. ) ;
#125 = ADVANCED_BREP_SHAPE_REPRESENTATION ( 'ThermallerPowerSwitchCAP', ( #426, #814 ), #543 ) ;
#126 = VERTEX_POINT ( 'NONE', #179 ) ;
#127 = CARTESIAN_POINT ( 'NONE',  ( -4.900000000000003020, -142.3542381406507218, 35.71546962609362197 ) ) ;
#128 = DIRECTION ( 'NONE',  ( 8.131516293641551468E-16, 0.9396926207859077618, -0.3420201433256705448 ) ) ;
#129 = EDGE_LOOP ( 'NONE', ( #368, #69, #396, #427 ) ) ;
#130 = CARTESIAN_POINT ( 'NONE',  ( 0.5000000000000572875, -142.7639720939537540, 36.92877836154004711 ) ) ;
#131 = EDGE_CURVE ( 'NONE', #72, #552, #833, .T. ) ;
#132 = AXIS2_PLACEMENT_3D ( 'NONE', #679, #597, #603 ) ;
#133 = PLANE ( 'NONE',  #45 ) ;
#134 = VECTOR ( 'NONE', #402, 1000.000000000000000 ) ;
#135 = VECTOR ( 'NONE', #819, 1000.000000000000114 ) ;
#136 = EDGE_LOOP ( 'NONE', ( #29, #47, #349, #321 ) ) ;
#137 = DIRECTION ( 'NONE',  ( -3.622459665509941934E-15, -0.3420201433256668810, -0.9396926207859090940 ) ) ;
#138 = CARTESIAN_POINT ( 'NONE',  ( -3.900000000000001688, -141.2791178999100623, 31.06744677030322777 ) ) ;
#139 = ORIENTED_EDGE ( 'NONE', *, *, #131, .T. ) ;
#140 = DIRECTION ( 'NONE',  ( 0.000000000000000000, -0.3420201433256704893, -0.9396926207859078728 ) ) ;
#141 = DIRECTION ( 'NONE',  ( 1.529150442999980710E-16, 0.9396926207859077618, -0.3420201433256705448 ) ) ;
#142 = EDGE_CURVE ( 'NONE', #804, #575, #579, .T. ) ;
#143 = CARTESIAN_POINT ( 'NONE',  ( -4.900000000000004796, -143.4257548222218190, 32.77150173890807139 ) ) ;
#144 = CARTESIAN_POINT ( 'NONE',  ( -1.499999999999997780, -146.5432946777023915, 26.54517490185573436 ) ) ;
#145 = FACE_OUTER_BOUND ( 'NONE', #512, .T. ) ;
#146 = VECTOR ( 'NONE', #152, 1000.000000000000000 ) ;
#147 = VECTOR ( 'NONE', #762, 1000.000000000000000 ) ;
#148 = ORIENTED_EDGE ( 'NONE', *, *, #195, .T. ) ;
#149 = EDGE_CURVE ( 'NONE', #372, #626, #119, .T. ) ;
#150 = ORIENTED_EDGE ( 'NONE', *, *, #576, .F. ) ;
#151 = CARTESIAN_POINT ( 'NONE',  ( -1.499999999999997335, -142.0122179973250525, 36.65516224687953439 ) ) ;
#152 = DIRECTION ( 'NONE',  ( 1.803374990528834103E-16, 0.9396926207859090940, -0.3420201433256668810 ) ) ;
#153 = ADVANCED_FACE ( 'NONE', ( #301 ), #190, .F. ) ;
#154 = CARTESIAN_POINT ( 'NONE',  ( -1.900000000000000133, -139.6982237877244586, 32.19473280590244713 ) ) ;
#155 = ORIENTED_EDGE ( 'NONE', *, *, #173, .T. ) ;
#156 = DIRECTION ( 'NONE',  ( 2.710505431213851311E-16, -0.9396926207859042091, 0.3420201433256805368 ) ) ;
#157 = PLANE ( 'NONE',  #109 ) ;
#158 = LINE ( 'NONE', #22, #302 ) ;
#159 = ORIENTED_EDGE ( 'NONE', *, *, #701, .F. ) ;
#160 = CARTESIAN_POINT ( 'NONE',  ( 2.156854211290853307, -143.7774935485603578, 32.00316195141942188 ) ) ;
#161 = CARTESIAN_POINT ( 'NONE',  ( 1.900000000000008127, -143.8416753262391978, 32.00014139708485317 ) ) ;
#162 = VECTOR ( 'NONE', #375, 1000.000000000000000 ) ;
#163 = CARTESIAN_POINT ( 'NONE',  ( -4.900000000000003908, -143.3802985706277298, 32.89639176373589180 ) ) ;
#164 = APPLICATION_CONTEXT ( 'automotive_design' ) ;
#165 = CIRCLE ( 'NONE', #14, 4.000000000000028422 ) ;
#166 = ORIENTED_EDGE ( 'NONE', *, *, #601, .F. ) ;
#167 = CARTESIAN_POINT ( 'NONE',  ( -7.600000000000002309, -153.4550880113247047, 41.88420409902862218 ) ) ;
#168 = DIRECTION ( 'NONE',  ( -1.000000000000000000, 0.000000000000000000, 0.000000000000000000 ) ) ;
#169 = DIRECTION ( 'NONE',  ( -1.355854680848614041E-31, 0.3420201433256705448, 0.9396926207859077618 ) ) ;
#170 = EDGE_LOOP ( 'NONE', ( #410, #292, #667, #415 ) ) ;
#171 = PLANE ( 'NONE',  #812 ) ;
#172 = ORIENTED_EDGE ( 'NONE', *, *, #293, .F. ) ;
#173 = EDGE_CURVE ( 'NONE', #789, #126, #449, .T. ) ;
#174 = VERTEX_POINT ( 'NONE', #837 ) ;
#175 = LINE ( 'NONE', #695, #373 ) ;
#176 = EDGE_CURVE ( 'NONE', #575, #599, #766, .T. ) ;
#177 = ORIENTED_EDGE ( 'NONE', *, *, #542, .T. ) ;
#178 = CARTESIAN_POINT ( 'NONE',  ( -0.09999999999998529510, -142.0896039162531679, 34.98064398195923985 ) ) ;
#179 = CARTESIAN_POINT ( 'NONE',  ( -0.4999999999999986122, -143.7223187139533991, 31.95669914294996161 ) ) ;
#180 = EDGE_LOOP ( 'NONE', ( #604, #40, #696, #380 ) ) ;
#181 = PLANE ( 'NONE',  #486 ) ;
#182 = CARTESIAN_POINT ( 'NONE',  ( -3.900000000000003908, -153.3495980569085191, 40.78163112313111327 ) ) ;
#183 = ORIENTED_EDGE ( 'NONE', *, *, #330, .F. ) ;
#184 = AXIS2_PLACEMENT_3D ( 'NONE', #458, #338, #663 ) ;
#185 = CARTESIAN_POINT ( 'NONE',  ( 23.44999999999999929, -146.5432946777023915, 26.54517490185573436 ) ) ;
#186 = VECTOR ( 'NONE', #156, 999.9999999999998863 ) ;
#187 = CARTESIAN_POINT ( 'NONE',  ( 2.900000000000007461, -154.7176786302112248, 37.02286063998747068 ) ) ;
#188 = ORIENTED_EDGE ( 'NONE', *, *, #536, .F. ) ;
#189 = CARTESIAN_POINT ( 'NONE',  ( -4.900000000000005684, -154.7176786302112248, 37.02286063998747068 ) ) ;
#190 = CYLINDRICAL_SURFACE ( 'NONE', #213, 4.000000000000015987 ) ;
#191 = ORIENTED_EDGE ( 'NONE', *, *, #493, .T. ) ;
#192 = EDGE_CURVE ( 'NONE', #364, #52, #436, .T. ) ;
#193 = LINE ( 'NONE', #448, #54 ) ;
#194 = DIRECTION ( 'NONE',  ( 1.529150442999980710E-16, 0.9396926207859077618, -0.3420201433256705448 ) ) ;
#195 = EDGE_CURVE ( 'NONE', #638, #680, #439, .T. ) ;
#196 =( NAMED_UNIT ( * ) SI_UNIT ( $, .STERADIAN. ) SOLID_ANGLE_UNIT ( ) );
#197 = ORIENTED_EDGE ( 'NONE', *, *, #142, .F. ) ;
#198 = LINE ( 'NONE', #595, #134 ) ;
#199 = DIRECTION ( 'NONE',  ( 4.577742506049848884E-15, -0.3420201433256705448, -0.9396926207859077618 ) ) ;
#200 = AXIS2_PLACEMENT_3D ( 'NONE', #530, #662, #317 ) ;
#201 = ORIENTED_EDGE ( 'NONE', *, *, #813, .T. ) ;
#202 = CARTESIAN_POINT ( 'NONE',  ( -4.900000000000003908, -147.4810891970970488, 33.32477971625265667 ) ) ;
#203 = LINE ( 'NONE', #272, #332 ) ;
#204 = CARTESIAN_POINT ( 'NONE',  ( -0.09999999999998529510, -142.7052401742393783, 33.28919726454458328 ) ) ;
#205 = FACE_OUTER_BOUND ( 'NONE', #632, .T. ) ;
#206 = FACE_OUTER_BOUND ( 'NONE', #252, .T. ) ;
#207 = EDGE_CURVE ( 'NONE', #654, #126, #829, .T. ) ;
#208 = CARTESIAN_POINT ( 'NONE',  ( -4.398378885968799779, -143.7080566033901334, 32.08270640188740686 ) ) ;
#209 = ORIENTED_EDGE ( 'NONE', *, *, #630, .F. ) ;
#210 = CARTESIAN_POINT ( 'NONE',  ( 2.900000000000010125, -143.3802985706277582, 32.89639176373588469 ) ) ;
#211 = DIRECTION ( 'NONE',  ( -1.000000000000000000, 0.000000000000000000, 0.000000000000000000 ) ) ;
#212 = EDGE_CURVE ( 'NONE', #768, #818, #710, .T. ) ;
#213 = AXIS2_PLACEMENT_3D ( 'NONE', #247, #748, #285 ) ;
#214 = CARTESIAN_POINT ( 'NONE',  ( -4.873130743732152936, -143.4706985214017436, 32.64734874176953383 ) ) ;
#215 = VERTEX_POINT ( 'NONE', #551 ) ;
#216 = DIRECTION ( 'NONE',  ( -2.547041952311780166E-16, 1.000000000000000000, 0.000000000000000000 ) ) ;
#217 = PLANE ( 'NONE',  #225 ) ;
#218 = EDGE_LOOP ( 'NONE', ( #60, #245, #139, #242 ) ) ;
#219 = FACE_OUTER_BOUND ( 'NONE', #549, .T. ) ;
#220 = DIRECTION ( 'NONE',  ( 0.000000000000000000, -0.3420201433256712109, -0.9396926207859075397 ) ) ;
#221 = CARTESIAN_POINT ( 'NONE',  ( -4.028676356727769026, -142.1003541751091461, 36.68724119215491442 ) ) ;
#222 = ORIENTED_EDGE ( 'NONE', *, *, #664, .T. ) ;
#223 = DIRECTION ( 'NONE',  ( -1.000000000000000000, 0.000000000000000000, 0.000000000000000000 ) ) ;
#224 = LINE ( 'NONE', #740, #704 ) ;
#225 = AXIS2_PLACEMENT_3D ( 'NONE', #618, #726, #59 ) ;
#226 = DIRECTION ( 'NONE',  ( 0.000000000000000000, 0.3420201433256816470, 0.9396926207859037650 ) ) ;
#227 = VECTOR ( 'NONE', #769, 1000.000000000000000 ) ;
#228 = ORIENTED_EDGE ( 'NONE', *, *, #288, .T. ) ;
#229 = CARTESIAN_POINT ( 'NONE',  ( -1.900000000000009459, -142.0896039162531679, 34.98064398195923985 ) ) ;
#230 = ADVANCED_FACE ( 'NONE', ( #683 ), #105, .F. ) ;
#231 = ORIENTED_EDGE ( 'NONE', *, *, #255, .F. ) ;
#232 = LINE ( 'NONE', #37, #135 ) ;
#233 = EDGE_CURVE ( 'NONE', #626, #599, #744, .T. ) ;
#234 = ORIENTED_EDGE ( 'NONE', *, *, #176, .T. ) ;
#235 = CARTESIAN_POINT ( 'NONE',  ( 5.599999999999997868, -153.4550880113247047, 41.88420409902862218 ) ) ;
#236 = EDGE_CURVE ( 'NONE', #264, #557, #763, .T. ) ;
#237 = AXIS2_PLACEMENT_3D ( 'NONE', #357, #643, #226 ) ;
#238 = ORIENTED_EDGE ( 'NONE', *, *, #489, .T. ) ;
#239 = MECHANICAL_DESIGN_GEOMETRIC_PRESENTATION_REPRESENTATION (  '', ( #824 ), #756 ) ;
#240 = DIRECTION ( 'NONE',  ( 0.000000000000000000, 0.9396926207859083169, -0.3420201433256692680 ) ) ;
#241 = CARTESIAN_POINT ( 'NONE',  ( -1.499999999999997335, -143.7223187139533991, 31.95669914294996161 ) ) ;
#242 = ORIENTED_EDGE ( 'NONE', *, *, #4, .F. ) ;
#243 = CARTESIAN_POINT ( 'NONE',  ( -1.900000000000008793, -139.0825875297382481, 33.88617952331710370 ) ) ;
#244 = CARTESIAN_POINT ( 'NONE',  ( -1.500000000000007772, -153.3495980569085191, 40.78163112313111327 ) ) ;
#245 = ORIENTED_EDGE ( 'NONE', *, *, #509, .T. ) ;
#246 = CARTESIAN_POINT ( 'NONE',  ( -1.900000000000001243, -142.7052401742393783, 33.28919726454459038 ) ) ;
#247 = CARTESIAN_POINT ( 'NONE',  ( -4.900000000000003908, -119.7265310592992478, 109.5798014867922063 ) ) ;
#248 = VERTEX_POINT ( 'NONE', #444 ) ;
#249 = VECTOR ( 'NONE', #656, 1000.000000000000000 ) ;
#250 = DIRECTION ( 'NONE',  ( -0.000000000000000000, -0.3420201433256698231, -0.9396926207859079838 ) ) ;
#251 = CARTESIAN_POINT ( 'NONE',  ( -1.900000000000001243, -142.7052401742393783, 33.28919726454459038 ) ) ;
#252 = EDGE_LOOP ( 'NONE', ( #699, #234, #376, #279 ) ) ;
#253 = CARTESIAN_POINT ( 'NONE',  ( -0.5000000000000004441, -144.4740728105820722, 32.23031525761048499 ) ) ;
#254 = FACE_OUTER_BOUND ( 'NONE', #170, .T. ) ;
#255 = EDGE_CURVE ( 'NONE', #466, #585, #455, .T. ) ;
#256 = ORIENTED_EDGE ( 'NONE', *, *, #658, .F. ) ;
#257 = DIRECTION ( 'NONE',  ( 0.000000000000000000, 0.9396926207859079838, -0.3420201433256702117 ) ) ;
#258 = DIRECTION ( 'NONE',  ( 8.131516293641553440E-16, 0.9396926207859042091, -0.3420201433256805368 ) ) ;
#259 = ORIENTED_EDGE ( 'NONE', *, *, #57, .T. ) ;
#260 = DIRECTION ( 'NONE',  ( 0.000000000000000000, -0.3420201433256699897, -0.9396926207859078728 ) ) ;
#261 = AXIS2_PLACEMENT_3D ( 'NONE', #702, #574, #707 ) ;
#262 = FACE_OUTER_BOUND ( 'NONE', #38, .T. ) ;
#263 = AXIS2_PLACEMENT_3D ( 'NONE', #709, #535, #714 ) ;
#264 = VERTEX_POINT ( 'NONE', #62 ) ;
#265 = LINE ( 'NONE', #394, #732 ) ;
#266 = EDGE_CURVE ( 'NONE', #18, #103, #775, .T. ) ;
#267 = FACE_OUTER_BOUND ( 'NONE', #311, .T. ) ;
#268 = ORIENTED_EDGE ( 'NONE', *, *, #377, .T. ) ;
#269 = ORIENTED_EDGE ( 'NONE', *, *, #385, .T. ) ;
#270 = EDGE_CURVE ( 'NONE', #384, #52, #779, .T. ) ;
#271 = DIRECTION ( 'NONE',  ( 1.000000000000000000, -0.000000000000000000, -0.000000000000000000 ) ) ;
#272 = CARTESIAN_POINT ( 'NONE',  ( 1.900000000000005906, -153.3495980569085191, 40.78163112313111327 ) ) ;
#273 = CARTESIAN_POINT ( 'NONE',  ( 2.900000000000008793, -139.9110373266073566, 34.82621725344688457 ) ) ;
#274 = ORIENTED_EDGE ( 'NONE', *, *, #33, .F. ) ;
#275 = DIRECTION ( 'NONE',  ( 0.000000000000000000, -0.3420201433256699897, -0.9396926207859078728 ) ) ;
#276 = ADVANCED_FACE ( 'NONE', ( #145 ), #584, .T. ) ;
#277 = AXIS2_PLACEMENT_3D ( 'NONE', #185, #430, #697 ) ;
#278 = DIRECTION ( 'NONE',  ( -1.000000000000000000, -0.000000000000000000, 3.854941057726204768E-15 ) ) ;
#279 = ORIENTED_EDGE ( 'NONE', *, *, #412, .F. ) ;
#280 = CARTESIAN_POINT ( 'NONE',  ( 5.599999999999998757, -140.5874761603712102, 29.75153199185908548 ) ) ;
#281 = DIRECTION ( 'NONE',  ( 0.000000000000000000, -0.3420201433256816470, -0.9396926207859037650 ) ) ;
#282 = ORIENTED_EDGE ( 'NONE', *, *, #377, .F. ) ;
#283 = CARTESIAN_POINT ( 'NONE',  ( 1.900000000000008127, -143.8416753262391978, 32.00014139708485317 ) ) ;
#284 = FILL_AREA_STYLE ('',( #351 ) ) ;
#285 = DIRECTION ( 'NONE',  ( 0.000000000000000000, 0.9396926207859074287, -0.3420201433256712664 ) ) ;
#286 = ORIENTED_EDGE ( 'NONE', *, *, #772, .T. ) ;
#287 = DIRECTION ( 'NONE',  ( -4.363349910066098073E-15, 0.000000000000000000, 1.000000000000000000 ) ) ;
#288 = EDGE_CURVE ( 'NONE', #308, #752, #203, .T. ) ;
#289 = FACE_OUTER_BOUND ( 'NONE', #760, .T. ) ;
#290 = AXIS2_PLACEMENT_3D ( 'NONE', #328, #519, #537 ) ;
#291 = VECTOR ( 'NONE', #720, 1000.000000000000000 ) ;
#292 = ORIENTED_EDGE ( 'NONE', *, *, #719, .F. ) ;
#293 = EDGE_CURVE ( 'NONE', #749, #372, #78, .T. ) ;
#294 = DIRECTION ( 'NONE',  ( 0.000000000000000000, -0.3420201433256816470, -0.9396926207859037650 ) ) ;
#295 = ADVANCED_FACE ( 'NONE', ( #267 ), #728, .F. ) ;
#296 = EDGE_LOOP ( 'NONE', ( #820, #592, #534, #718 ) ) ;
#297 = EDGE_CURVE ( 'NONE', #585, #680, #17, .T. ) ;
#298 = DIRECTION ( 'NONE',  ( 0.000000000000000000, -0.9396926207859077618, 0.3420201433256705448 ) ) ;
#299 = ORIENTED_EDGE ( 'NONE', *, *, #236, .F. ) ;
#300 = DIRECTION ( 'NONE',  ( 0.000000000000000000, -0.3420201433256692680, -0.9396926207859083169 ) ) ;
#301 = FACE_OUTER_BOUND ( 'NONE', #499, .T. ) ;
#302 = VECTOR ( 'NONE', #81, 1000.000000000000000 ) ;
#303 = ORIENTED_EDGE ( 'NONE', *, *, #816, .T. ) ;
#304 = AXIS2_PLACEMENT_3D ( 'NONE', #342, #356, #294 ) ;
#305 = FACE_OUTER_BOUND ( 'NONE', #421, .T. ) ;
#306 = CARTESIAN_POINT ( 'NONE',  ( -3.900000000000001688, -141.2791178999100339, 31.06744677030322421 ) ) ;
#307 = ADVANCED_FACE ( 'NONE', ( #653 ), #66, .F. ) ;
#308 = VERTEX_POINT ( 'NONE', #602 ) ;
#309 = DIRECTION ( 'NONE',  ( 0.000000000000000000, 0.9396926207859077618, -0.3420201433256705448 ) ) ;
#310 = CARTESIAN_POINT ( 'NONE',  ( -0.09999999999998529510, -142.0896039162531679, 34.98064398195922564 ) ) ;
#311 = EDGE_LOOP ( 'NONE', ( #63, #44, #201, #572 ) ) ;
#312 = LINE ( 'NONE', #246, #456 ) ;
#313 = EDGE_CURVE ( 'NONE', #384, #654, #591, .T. ) ;
#314 = FACE_OUTER_BOUND ( 'NONE', #129, .T. ) ;
#315 = EDGE_LOOP ( 'NONE', ( #159, #76, #183, #49 ) ) ;
#316 = AXIS2_PLACEMENT_3D ( 'NONE', #715, #391, #650 ) ;
#317 = DIRECTION ( 'NONE',  ( 0.000000000000000000, 0.9396926207859079838, -0.3420201433256702117 ) ) ;
#318 = ADVANCED_FACE ( 'NONE', ( #262 ), #531, .T. ) ;
#319 = LINE ( 'NONE', #464, #511 ) ;
#320 = CARTESIAN_POINT ( 'NONE',  ( 0.000000000000000000, 0.000000000000000000, 0.000000000000000000 ) ) ;
#321 = ORIENTED_EDGE ( 'NONE', *, *, #445, .F. ) ;
#322 = B_SPLINE_CURVE_WITH_KNOTS ( 'NONE', 3,
 ( #480, #621, #345, #492, #613, #624, #678, #807, #101, #746 ),
 .UNSPECIFIED., .F., .F.,
 ( 4, 2, 2, 2, 4 ),
 ( 7.152448122690996019E-18, 0.0003930787751366302766, 0.0007861575502732533974, 0.001179236325409876518, 0.001572315100546499639 ),
 .UNSPECIFIED. ) ;
#323 = CARTESIAN_POINT ( 'NONE',  ( -4.900000000000003020, -139.9110373266073566, 34.82621725344688457 ) ) ;
#324 = ADVANCED_FACE ( 'NONE', ( #206 ), #133, .F. ) ;
#325 = LINE ( 'NONE', #587, #625 ) ;
#326 = EDGE_LOOP ( 'NONE', ( #56, #478, #231, #303, #197, #269 ) ) ;
#327 = CARTESIAN_POINT ( 'NONE',  ( -0.4999999999999983902, -142.7639720939537540, 36.92877836154006843 ) ) ;
#328 = CARTESIAN_POINT ( 'NONE',  ( -0.09999999999998585021, -144.9515171144454087, 36.02229519915479727 ) ) ;
#329 = ORIENTED_EDGE ( 'NONE', *, *, #776, .F. ) ;
#330 = EDGE_CURVE ( 'NONE', #818, #654, #319, .T. ) ;
#331 = PLANE ( 'NONE',  #334 ) ;
#332 = VECTOR ( 'NONE', #141, 1000.000000000000000 ) ;
#333 = DIRECTION ( 'NONE',  ( 0.000000000000000000, 0.9396926207859077618, -0.3420201433256705448 ) ) ;
#334 = AXIS2_PLACEMENT_3D ( 'NONE', #479, #474, #275 ) ;
#335 = CARTESIAN_POINT ( 'NONE',  ( -3.900000000000002132, -142.1315746096108512, 36.69860450101442240 ) ) ;
#336 = ORIENTED_EDGE ( 'NONE', *, *, #836, .T. ) ;
#337 = PLANE ( 'NONE',  #612 ) ;
#338 = DIRECTION ( 'NONE',  ( -1.000000000000000000, -4.237931227742772579E-17, -1.164362035342485569E-16 ) ) ;
#339 = PLANE ( 'NONE',  #132 ) ;
#340 = ORIENTED_EDGE ( 'NONE', *, *, #630, .T. ) ;
#341 = CARTESIAN_POINT ( 'NONE',  ( 1.900000000000005684, -154.7176786302112248, 37.02286063998747068 ) ) ;
#342 = CARTESIAN_POINT ( 'NONE',  ( -3.900000000000001688, -140.9370977565843930, 32.00713939108914019 ) ) ;
#343 = LINE ( 'NONE', #154, #593 ) ;
#344 = ORIENTED_EDGE ( 'NONE', *, *, #565, .F. ) ;
#345 = CARTESIAN_POINT ( 'NONE',  ( 2.873659143120035342, -142.2639379787420637, 35.96287897919604148 ) ) ;
#346 = VECTOR ( 'NONE', #640, 1000.000000000000000 ) ;
#347 = AXIS2_PLACEMENT_3D ( 'NONE', #113, #758, #828 ) ;
#348 = CARTESIAN_POINT ( 'NONE',  ( -7.600000000000002309, -141.6211380432356464, 30.12775414951730468 ) ) ;
#349 = ORIENTED_EDGE ( 'NONE', *, *, #89, .F. ) ;
#350 = CARTESIAN_POINT ( 'NONE',  ( 2.696487357919132855, -143.5957454233256101, 32.31641098885223329 ) ) ;
#351 = FILL_AREA_STYLE_COLOUR ( '', #717 ) ;
#352 = ORIENTED_EDGE ( 'NONE', *, *, #719, .T. ) ;
#353 = EDGE_CURVE ( 'NONE', #2, #827, #523, .T. ) ;
#354 = ORIENTED_EDGE ( 'NONE', *, *, #689, .F. ) ;
#355 = CARTESIAN_POINT ( 'NONE',  ( 2.028648564982183711, -143.8104616347817171, 31.98878054249277270 ) ) ;
#356 = DIRECTION ( 'NONE',  ( -1.529150442999980957E-16, -0.9396926207859078728, 0.3420201433256704893 ) ) ;
#357 = CARTESIAN_POINT ( 'NONE',  ( -3.900000000000003908, -153.6916182002341884, 39.84193850234521506 ) ) ;
#358 = ADVANCED_FACE ( 'NONE', ( #724, #254 ), #453, .F. ) ;
#359 = EDGE_LOOP ( 'NONE', ( #809, #166, #562, #188, #406, #447, #23, #209 ) ) ;
#360 = PRESENTATION_STYLE_ASSIGNMENT (( #750 ) ) ;
#361 = VECTOR ( 'NONE', #487, 1000.000000000000000 ) ;
#362 = EDGE_CURVE ( 'NONE', #429, #795, #325, .T. ) ;
#363 = VECTOR ( 'NONE', #94, 999.9999999999998863 ) ;
#364 = VERTEX_POINT ( 'NONE', #398 ) ;
#365 = CARTESIAN_POINT ( 'NONE',  ( 2.900000000000010125, -143.3802985706277582, 32.89639176373588469 ) ) ;
#366 = ORIENTED_EDGE ( 'NONE', *, *, #565, .T. ) ;
#367 = CARTESIAN_POINT ( 'NONE',  ( -7.600000000000002309, -140.5874761603712102, 29.75153199185908548 ) ) ;
#368 = ORIENTED_EDGE ( 'NONE', *, *, #646, .F. ) ;
#369 = DIRECTION ( 'NONE',  ( -2.891205793294656140E-16, 0.3420201433256711554, 0.9396926207859075397 ) ) ;
#370 = CARTESIAN_POINT ( 'NONE',  ( -0.4999999999999986122, -115.9677605761556123, 108.2117209134895148 ) ) ;
#371 = VECTOR ( 'NONE', #614, 1000.000000000000000 ) ;
#372 = VERTEX_POINT ( 'NONE', #138 ) ;
#373 = VECTOR ( 'NONE', #639, 1000.000000000000000 ) ;
#374 = DIRECTION ( 'NONE',  ( 1.000000000000000000, 0.000000000000000000, 0.000000000000000000 ) ) ;
#375 = DIRECTION ( 'NONE',  ( 1.529150442999980710E-16, 0.9396926207859077618, -0.3420201433256705448 ) ) ;
#376 = ORIENTED_EDGE ( 'NONE', *, *, #536, .T. ) ;
#377 = EDGE_CURVE ( 'NONE', #789, #638, #461, .T. ) ;
#378 = LINE ( 'NONE', #503, #147 ) ;
#379 = CYLINDRICAL_SURFACE ( 'NONE', #237, 1.000000000000004219 ) ;
#380 = ORIENTED_EDGE ( 'NONE', *, *, #836, .F. ) ;
#381 = ADVANCED_FACE ( 'NONE', ( #484 ), #157, .F. ) ;
#382 = DIRECTION ( 'NONE',  ( 0.000000000000000000, -0.3420201433256711554, -0.9396926207859075397 ) ) ;
#383 = DIRECTION ( 'NONE',  ( 1.436931387358583132E-16, 1.000000000000000000, 0.000000000000000000 ) ) ;
#384 = VERTEX_POINT ( 'NONE', #26 ) ;
#385 = EDGE_CURVE ( 'NONE', #804, #308, #322, .T. ) ;
#386 = CIRCLE ( 'NONE', #496, 1.000000000000004219 ) ;
#387 = ORIENTED_EDGE ( 'NONE', *, *, #353, .F. ) ;
#388 = VECTOR ( 'NONE', #608, 1000.000000000000000 ) ;
#389 = DIRECTION ( 'NONE',  ( 0.000000000000000000, 0.9396926207859079838, -0.3420201433256702117 ) ) ;
#390 = AXIS2_PLACEMENT_3D ( 'NONE', #607, #817, #107 ) ;
#391 = DIRECTION ( 'NONE',  ( 0.000000000000000000, -0.9396926207859079838, 0.3420201433256698231 ) ) ;
#392 = PRODUCT_CONTEXT ( 'NONE', #164, 'mechanical' ) ;
#393 = ORIENTED_EDGE ( 'NONE', *, *, #27, .F. ) ;
#394 = CARTESIAN_POINT ( 'NONE',  ( 0.5000000000000559552, -142.2293091390214386, 38.39775275723542336 ) ) ;
#395 = CARTESIAN_POINT ( 'NONE',  ( -3.900000000000003908, -144.4740728105820722, 32.23031525761048499 ) ) ;
#396 = ORIENTED_EDGE ( 'NONE', *, *, #236, .T. ) ;
#397 = LINE ( 'NONE', #144, #291 ) ;
#398 = CARTESIAN_POINT ( 'NONE',  ( -2.499999999999996891, -142.7639720939537824, 36.92877836153999027 ) ) ;
#399 = APPLICATION_PROTOCOL_DEFINITION ( 'draft international standard', 'automotive_design', 1998, #567 ) ;
#400 = CARTESIAN_POINT ( 'NONE',  ( 1.900000000000005906, -155.0596987735368657, 36.08316801920155825 ) ) ;
#401 = ORIENTED_EDGE ( 'NONE', *, *, #693, .F. ) ;
#402 = DIRECTION ( 'NONE',  ( 1.000000000000000000, 0.000000000000000000, 0.000000000000000000 ) ) ;
#403 = CARTESIAN_POINT ( 'NONE',  ( -3.900000000000003908, -155.0596987735368941, 36.08316801920155825 ) ) ;
#404 = AXIS2_PLACEMENT_3D ( 'NONE', #802, #620, #287 ) ;
#405 = CARTESIAN_POINT ( 'NONE',  ( -4.510837755761246015, -142.0965640023991909, 36.47570856804786388 ) ) ;
#406 = ORIENTED_EDGE ( 'NONE', *, *, #233, .F. ) ;
#407 = CARTESIAN_POINT ( 'NONE',  ( -0.09999999999998472611, -139.6982237877244586, 32.19473280590244002 ) ) ;
#408 = CARTESIAN_POINT ( 'NONE',  ( -3.900000000000003908, -154.7176786302112248, 37.02286063998747068 ) ) ;
#409 = LINE ( 'NONE', #400, #371 ) ;
#410 = ORIENTED_EDGE ( 'NONE', *, *, #813, .F. ) ;
#411 = CARTESIAN_POINT ( 'NONE',  ( -7.600000000000002309, -139.2269970399559611, 36.70560249501869521 ) ) ;
#412 = EDGE_CURVE ( 'NONE', #804, #87, #541, .T. ) ;
#413 = LINE ( 'NONE', #753, #526 ) ;
#414 = CARTESIAN_POINT ( 'NONE',  ( -4.696944823412205317, -142.1466596307001566, 36.29767993630130718 ) ) ;
#415 = ORIENTED_EDGE ( 'NONE', *, *, #362, .F. ) ;
#416 =( LENGTH_UNIT ( ) NAMED_UNIT ( * ) SI_UNIT ( .MILLI., .METRE. ) );
#417 = DIRECTION ( 'NONE',  ( 0.000000000000000000, -0.9396926207859083169, 0.3420201433256692680 ) ) ;
#418 = VECTOR ( 'NONE', #128, 1000.000000000000000 ) ;
#419 = AXIS2_PLACEMENT_3D ( 'NONE', #495, #570, #691 ) ;
#420 = FACE_OUTER_BOUND ( 'NONE', #315, .T. ) ;
#421 = EDGE_LOOP ( 'NONE', ( #111, #15, #329, #548, #454, #99, #117, #451, #459, #393 ) ) ;
#422 = CARTESIAN_POINT ( 'NONE',  ( -1.499999999999998002, -142.7639720939537540, 36.92877836154006843 ) ) ;
#423 = DIRECTION ( 'NONE',  ( -0.000000000000000000, 0.9396926207859083169, -0.3420201433256692680 ) ) ;
#424 = EDGE_CURVE ( 'NONE', #308, #731, #794, .T. ) ;
#425 = DIRECTION ( 'NONE',  ( 1.000000000000000000, 0.000000000000000000, 0.000000000000000000 ) ) ;
#426 = MANIFOLD_SOLID_BREP ( 'Stock-Main-1', #692 ) ;
#427 = ORIENTED_EDGE ( 'NONE', *, *, #112, .T. ) ;
#428 = CARTESIAN_POINT ( 'NONE',  ( -0.09999999999998585021, -144.9515171144454087, 36.02229519915479727 ) ) ;
#429 = VERTEX_POINT ( 'NONE', #669 ) ;
#430 = DIRECTION ( 'NONE',  ( 0.000000000000000000, 0.9396926207859085389, -0.3420201433256683798 ) ) ;
#431 = VECTOR ( 'NONE', #374, 1000.000000000000000 ) ;
#432 = ORIENTED_EDGE ( 'NONE', *, *, #689, .T. ) ;
#433 = CARTESIAN_POINT ( 'NONE',  ( -3.900000000000001688, -139.5690171832816304, 35.76590987423276857 ) ) ;
#434 = ORIENTED_EDGE ( 'NONE', *, *, #297, .F. ) ;
#435 = CARTESIAN_POINT ( 'NONE',  ( 1.900000000000008127, -141.2791178999100339, 31.06744677030322421 ) ) ;
#436 = LINE ( 'NONE', #516, #716 ) ;
#437 = ORIENTED_EDGE ( 'NONE', *, *, #446, .T. ) ;
#438 = FACE_OUTER_BOUND ( 'NONE', #180, .T. ) ;
#439 = LINE ( 'NONE', #771, #346 ) ;
#440 = VECTOR ( 'NONE', #169, 1000.000000000000000 ) ;
#441 = ORIENTED_EDGE ( 'NONE', *, *, #330, .T. ) ;
#442 = VECTOR ( 'NONE', #518, 1000.000000000000000 ) ;
#443 = PLANE ( 'NONE',  #80 ) ;
#444 = CARTESIAN_POINT ( 'NONE',  ( -7.600000000000002309, -140.5874761603712102, 29.75153199185908548 ) ) ;
#445 = EDGE_CURVE ( 'NONE', #524, #827, #224, .T. ) ;
#446 = EDGE_CURVE ( 'NONE', #615, #524, #104, .T. ) ;
#447 = ORIENTED_EDGE ( 'NONE', *, *, #149, .F. ) ;
#448 = CARTESIAN_POINT ( 'NONE',  ( -4.900000000000005684, -153.6916182002341884, 39.84193850234521506 ) ) ;
#449 = LINE ( 'NONE', #370, #566 ) ;
#450 = EDGE_CURVE ( 'NONE', #502, #790, #413, .T. ) ;
#451 = ORIENTED_EDGE ( 'NONE', *, *, #293, .T. ) ;
#452 = CARTESIAN_POINT ( 'NONE',  ( 5.599999999999998757, -140.5874761603712102, 29.75153199185908548 ) ) ;
#453 = PLANE ( 'NONE',  #316 ) ;
#454 = ORIENTED_EDGE ( 'NONE', *, *, #313, .F. ) ;
#455 = CIRCLE ( 'NONE', #261, 4.000000000000028422 ) ;
#456 = VECTOR ( 'NONE', #765, 1000.000000000000000 ) ;
#457 = CARTESIAN_POINT ( 'NONE',  ( -4.900000000000003908, -143.3802985706277298, 32.89639176373589180 ) ) ;
#458 = CARTESIAN_POINT ( 'NONE',  ( 5.599999999999998757, -155.8492290146044184, 35.30635575352723521 ) ) ;
#459 = ORIENTED_EDGE ( 'NONE', *, *, #149, .T. ) ;
#460 = FACE_BOUND ( 'NONE', #359, .T. ) ;
#461 = LINE ( 'NONE', #785, #249 ) ;
#462 = FACE_OUTER_BOUND ( 'NONE', #581, .T. ) ;
#463 = CARTESIAN_POINT ( 'NONE',  ( -1.900000000000001243, -145.5671533724316191, 34.33084848174014780 ) ) ;
#464 = CARTESIAN_POINT ( 'NONE',  ( -1.499999999999997335, -115.9677605761556123, 108.2117209134895148 ) ) ;
#465 = CARTESIAN_POINT ( 'NONE',  ( -4.696487357919128414, -143.5957454233256101, 32.31641098885223329 ) ) ;
#466 = VERTEX_POINT ( 'NONE', #161 ) ;
#467 = CARTESIAN_POINT ( 'NONE',  ( 2.510192478527208060, -143.6718077142885761, 32.14794005231797058 ) ) ;
#468 = AXIS2_PLACEMENT_3D ( 'NONE', #528, #333, #596 ) ;
#469 = CARTESIAN_POINT ( 'NONE',  ( 2.900000000000006573, -153.6916182002341884, 39.84193850234521506 ) ) ;
#470 = PRODUCT_DEFINITION_FORMATION_WITH_SPECIFIED_SOURCE ( 'ANY', '', #636, .NOT_KNOWN. ) ;
#471 = DIRECTION ( 'NONE',  ( -1.529150442999980957E-16, -0.9396926207859078728, 0.3420201433256704893 ) ) ;
#472 = ADVANCED_FACE ( 'NONE', ( #289 ), #171, .F. ) ;
#473 = ORIENTED_EDGE ( 'NONE', *, *, #89, .T. ) ;
#474 = DIRECTION ( 'NONE',  ( 0.000000000000000000, -0.9396926207859079838, 0.3420201433256700452 ) ) ;
#475 =( NAMED_UNIT ( * ) PLANE_ANGLE_UNIT ( ) SI_UNIT ( $, .RADIAN. ) );
#476 = EDGE_CURVE ( 'NONE', #174, #671, #90, .T. ) ;
#477 = ORIENTED_EDGE ( 'NONE', *, *, #192, .F. ) ;
#478 = ORIENTED_EDGE ( 'NONE', *, *, #693, .T. ) ;
#479 = CARTESIAN_POINT ( 'NONE',  ( 0.000000000000000000, -134.7374854722168891, 49.04043415176203524 ) ) ;
#480 = CARTESIAN_POINT ( 'NONE',  ( 2.900000000000009237, -142.3542381406507218, 35.71546962609362907 ) ) ;
#481 = CARTESIAN_POINT ( 'NONE',  ( 1.900000000000007905, -139.9110373266073566, 34.82621725344688457 ) ) ;
#482 = EDGE_LOOP ( 'NONE', ( #401, #494, #148, #434 ) ) ;
#483 = LINE ( 'NONE', #743, #186 ) ;
#484 = FACE_OUTER_BOUND ( 'NONE', #801, .T. ) ;
#485 = VECTOR ( 'NONE', #647, 1000.000000000000227 ) ;
#486 = AXIS2_PLACEMENT_3D ( 'NONE', #573, #309, #831 ) ;
#487 = DIRECTION ( 'NONE',  ( 1.000000000000000000, 0.000000000000000000, 0.000000000000000000 ) ) ;
#488 = ORIENTED_EDGE ( 'NONE', *, *, #450, .T. ) ;
#489 = EDGE_CURVE ( 'NONE', #708, #372, #781, .T. ) ;
#490 = SURFACE_STYLE_FILL_AREA ( #284 ) ;
#491 = ORIENTED_EDGE ( 'NONE', *, *, #747, .T. ) ;
#492 = CARTESIAN_POINT ( 'NONE',  ( 2.772145678626708687, -142.1825560933183397, 36.19219568207741133 ) ) ;
#493 = EDGE_CURVE ( 'NONE', #174, #502, #232, .T. ) ;
#494 = ORIENTED_EDGE ( 'NONE', *, *, #588, .F. ) ;
#495 = CARTESIAN_POINT ( 'NONE',  ( -3.900000000000003908, -153.3495980569085191, 40.78163112313111327 ) ) ;
#496 = AXIS2_PLACEMENT_3D ( 'NONE', #481, #471, #281 ) ;
#497 = VECTOR ( 'NONE', #250, 1000.000000000000000 ) ;
#498 = VECTOR ( 'NONE', #382, 1000.000000000000227 ) ;
#499 = EDGE_LOOP ( 'NONE', ( #222, #477, #256, #274, #491, #589 ) ) ;
#500 = CARTESIAN_POINT ( 'NONE',  ( 0.5000000000000038858, -144.4740728105821006, 32.23031525761049920 ) ) ;
#501 = DIRECTION ( 'NONE',  ( 1.529150442999980710E-16, 0.9396926207859077618, -0.3420201433256705448 ) ) ;
#502 = VERTEX_POINT ( 'NONE', #110 ) ;
#503 = CARTESIAN_POINT ( 'NONE',  ( -3.900000000000001688, -139.5690171832816873, 35.76590987423278989 ) ) ;
#504 = PRODUCT_DEFINITION_SHAPE ( 'NONE', 'NONE',  #799 ) ;
#505 = CARTESIAN_POINT ( 'NONE',  ( -4.900000000000005684, -153.6916182002341884, 39.84193850234521506 ) ) ;
#506 = ORIENTED_EDGE ( 'NONE', *, *, #772, .F. ) ;
#507 = UNCERTAINTY_MEASURE_WITH_UNIT (LENGTH_MEASURE( 1.000000000000000082E-05 ), #416, 'distance_accuracy_value', 'NONE');
#508 = LINE ( 'NONE', #367, #497 ) ;
#509 = EDGE_CURVE ( 'NONE', #103, #72, #118, .T. ) ;
#510 = DIRECTION ( 'NONE',  ( -0.000000000000000000, -0.3420201433256705448, -0.9396926207859077618 ) ) ;
#511 = VECTOR ( 'NONE', #12, 1000.000000000000000 ) ;
#512 = EDGE_LOOP ( 'NONE', ( #172, #757, #7, #238 ) ) ;
#513 = VECTOR ( 'NONE', #649, 1000.000000000000000 ) ;
#514 = FACE_OUTER_BOUND ( 'NONE', #644, .T. ) ;
#515 = ADVANCED_FACE ( 'NONE', ( #305 ), #700, .F. ) ;
#516 = CARTESIAN_POINT ( 'NONE',  ( -2.499999999999818368, -116.7195146727844559, 108.4853370281501128 ) ) ;
#517 = ORIENTED_EDGE ( 'NONE', *, *, #57, .F. ) ;
#518 = DIRECTION ( 'NONE',  ( 1.000000000000000000, 0.000000000000000000, -0.000000000000000000 ) ) ;
#519 = DIRECTION ( 'NONE',  ( 1.000000000000000000, -1.694618171109801123E-16, 6.167905727306028081E-17 ) ) ;
#520 = ORIENTED_EDGE ( 'NONE', *, *, #424, .F. ) ;
#521 = ADVANCED_FACE ( 'NONE', ( #438 ), #443, .F. ) ;
#522 = FACE_OUTER_BOUND ( 'NONE', #326, .T. ) ;
#523 = LINE ( 'NONE', #734, #146 ) ;
#524 = VERTEX_POINT ( 'NONE', #706 ) ;
#525 = VECTOR ( 'NONE', #55, 1000.000000000000114 ) ;
#526 = VECTOR ( 'NONE', #168, 1000.000000000000000 ) ;
#527 = CARTESIAN_POINT ( 'NONE',  ( 1.900000000000008127, -139.5690171832816873, 35.76590987423278989 ) ) ;
#528 = CARTESIAN_POINT ( 'NONE',  ( -1.499999999999997335, -115.4979142657626596, 108.0407108418266802 ) ) ;
#529 = CARTESIAN_POINT ( 'NONE',  ( -4.771986136752634167, -143.5552496306175101, 32.42077294266434251 ) ) ;
#530 = CARTESIAN_POINT ( 'NONE',  ( 2.900000000000008349, -145.2363255255363867, 39.49221721587757372 ) ) ;
#531 = PLANE ( 'NONE',  #468 ) ;
#532 = DIRECTION ( 'NONE',  ( 1.000000000000000000, 0.000000000000000000, 0.000000000000000000 ) ) ;
#533 = CARTESIAN_POINT ( 'NONE',  ( -4.873659143120032233, -142.2639379787420637, 35.96287897919604859 ) ) ;
#534 = ORIENTED_EDGE ( 'NONE', *, *, #51, .T. ) ;
#535 = DIRECTION ( 'NONE',  ( 0.000000000000000000, 0.9396926207859085389, -0.3420201433256683798 ) ) ;
#536 = EDGE_CURVE ( 'NONE', #599, #87, #578, .T. ) ;
#537 = DIRECTION ( 'NONE',  ( 1.694618171109801123E-16, 1.000000000000000000, 0.000000000000000000 ) ) ;
#538 = ADVANCED_FACE ( 'NONE', ( #631 ), #53, .F. ) ;
#539 = CARTESIAN_POINT ( 'NONE',  ( -4.398476187782199176, -142.0823551570221639, 36.54931545820588923 ) ) ;
#540 = ORIENTED_EDGE ( 'NONE', *, *, #725, .F. ) ;
#541 = LINE ( 'NONE', #42, #580 ) ;
#542 = EDGE_CURVE ( 'NONE', #795, #248, #508, .T. ) ;
#543 =( GEOMETRIC_REPRESENTATION_CONTEXT ( 3 ) GLOBAL_UNCERTAINTY_ASSIGNED_CONTEXT ( ( #507 ) ) GLOBAL_UNIT_ASSIGNED_CONTEXT ( ( #416, #681, #196 ) ) REPRESENTATION_CONTEXT ( 'NONE', 'WORKASPACE' ) );
#544 = CARTESIAN_POINT ( 'NONE',  ( -4.772145678626707799, -142.1825560933183397, 36.19219568207740423 ) ) ;
#545 = ORIENTED_EDGE ( 'NONE', *, *, #684, .F. ) ;
#546 = PLANE ( 'NONE',  #404 ) ;
#547 =( LENGTH_UNIT ( ) NAMED_UNIT ( * ) SI_UNIT ( .MILLI., .METRE. ) );
#548 = ORIENTED_EDGE ( 'NONE', *, *, #207, .F. ) ;
#549 = EDGE_LOOP ( 'NONE', ( #694, #10, #82, #830 ) ) ;
#550 = LINE ( 'NONE', #229, #556 ) ;
#551 = CARTESIAN_POINT ( 'NONE',  ( -4.900000000000003020, -139.9110373266073566, 34.82621725344688457 ) ) ;
#552 = VERTEX_POINT ( 'NONE', #243 ) ;
#553 = PLANE ( 'NONE',  #661 ) ;
#554 = DIRECTION ( 'NONE',  ( 0.000000000000000000, -0.9396926207859090940, 0.3420201433256668810 ) ) ;
#555 = VECTOR ( 'NONE', #194, 1000.000000000000000 ) ;
#556 = VECTOR ( 'NONE', #223, 1000.000000000000000 ) ;
#557 = VERTEX_POINT ( 'NONE', #433 ) ;
#558 = SURFACE_SIDE_STYLE ('',( #490 ) ) ;
#559 = EDGE_LOOP ( 'NONE', ( #155, #764, #660, #282 ) ) ;
#560 = FACE_OUTER_BOUND ( 'NONE', #296, .T. ) ;
#561 = ADVANCED_FACE ( 'NONE', ( #514 ), #755, .F. ) ;
#562 = ORIENTED_EDGE ( 'NONE', *, *, #51, .F. ) ;
#563 = LINE ( 'NONE', #642, #30 ) ;
#564 = DIRECTION ( 'NONE',  ( -1.529150442999980957E-16, -0.9396926207859078728, 0.3420201433256704893 ) ) ;
#565 = EDGE_CURVE ( 'NONE', #103, #2, #312, .T. ) ;
#566 = VECTOR ( 'NONE', #510, 1000.000000000000000 ) ;
#567 = APPLICATION_CONTEXT ( 'automotive_design' ) ;
#568 = VECTOR ( 'NONE', #271, 1000.000000000000000 ) ;
#569 = ORIENTED_EDGE ( 'NONE', *, *, #658, .T. ) ;
#570 = DIRECTION ( 'NONE',  ( 0.000000000000000000, -0.3420201433256705448, -0.9396926207859077618 ) ) ;
#571 = DIRECTION ( 'NONE',  ( -0.000000000000000000, -0.3420201433256705448, -0.9396926207859077618 ) ) ;
#572 = ORIENTED_EDGE ( 'NONE', *, *, #605, .F. ) ;
#573 = CARTESIAN_POINT ( 'NONE',  ( -1.499999999999997335, -115.9677605761556123, 108.2117209134895148 ) ) ;
#574 = DIRECTION ( 'NONE',  ( -3.706674093967524837E-16, 0.3420201433256704893, 0.9396926207859078728 ) ) ;
#575 = VERTEX_POINT ( 'NONE', #365 ) ;
#576 = EDGE_CURVE ( 'NONE', #818, #789, #48, .T. ) ;
#577 = UNCERTAINTY_MEASURE_WITH_UNIT (LENGTH_MEASURE( 1.000000000000000082E-05 ), #547, 'distance_accuracy_value', 'NONE');
#578 = LINE ( 'NONE', #835, #767 ) ;
#579 = LINE ( 'NONE', #808, #525 ) ;
#580 = VECTOR ( 'NONE', #32, 1000.000000000000000 ) ;
#581 = EDGE_LOOP ( 'NONE', ( #739, #336, #177, #517 ) ) ;
#582 = PRESENTATION_LAYER_ASSIGNMENT (  '', '', ( #824 ) ) ;
#583 = LINE ( 'NONE', #189, #637 ) ;
#584 = CYLINDRICAL_SURFACE ( 'NONE', #703, 1.000000000000004219 ) ;
#585 = VERTEX_POINT ( 'NONE', #500 ) ;
#586 = CARTESIAN_POINT ( 'NONE',  ( -4.900000000000003908, -145.7709884804686737, 38.02324282018221169 ) ) ;
#587 = CARTESIAN_POINT ( 'NONE',  ( 5.599999999999997868, -138.1933351570914965, 36.32938033736046890 ) ) ;
#588 = EDGE_CURVE ( 'NONE', #638, #731, #175, .T. ) ;
#589 = ORIENTED_EDGE ( 'NONE', *, *, #39, .F. ) ;
#590 = CARTESIAN_POINT ( 'NONE',  ( -4.900000000000003908, -115.9677605761556123, 108.2117209134895148 ) ) ;
#591 = LINE ( 'NONE', #721, #67 ) ;
#592 = ORIENTED_EDGE ( 'NONE', *, *, #412, .T. ) ;
#593 = VECTOR ( 'NONE', #278, 1000.000000000000000 ) ;
#594 = VECTOR ( 'NONE', #423, 999.9999999999998863 ) ;
#595 = CARTESIAN_POINT ( 'NONE',  ( -3.900000000000003908, -142.7639720939537540, 36.92877836154004711 ) ) ;
#596 = DIRECTION ( 'NONE',  ( 0.000000000000000000, 0.3420201433256705448, 0.9396926207859077618 ) ) ;
#597 = DIRECTION ( 'NONE',  ( -1.000000000000000000, 7.641125856935340005E-16, -2.781142368206308420E-16 ) ) ;
#598 = ADVANCED_FACE ( 'NONE', ( #560 ), #58, .T. ) ;
#599 = VERTEX_POINT ( 'NONE', #122 ) ;
#600 = LINE ( 'NONE', #323, #498 ) ;
#601 = EDGE_CURVE ( 'NONE', #752, #557, #378, .T. ) ;
#602 = CARTESIAN_POINT ( 'NONE',  ( 1.900000000000007905, -142.1315746096108512, 36.69860450101442240 ) ) ;
#603 = DIRECTION ( 'NONE',  ( -7.641125856935340005E-16, -1.000000000000000000, 0.000000000000000000 ) ) ;
#604 = ORIENTED_EDGE ( 'NONE', *, *, #450, .F. ) ;
#605 = EDGE_CURVE ( 'NONE', #502, #429, #563, .T. ) ;
#606 = DIRECTION ( 'NONE',  ( 0.000000000000000000, 0.3420201433256816470, 0.9396926207859037650 ) ) ;
#607 = CARTESIAN_POINT ( 'NONE',  ( 2.900000000000008793, -145.7709884804686737, 38.02324282018221169 ) ) ;
#608 = DIRECTION ( 'NONE',  ( 1.000000000000000000, 0.000000000000000000, 0.000000000000000000 ) ) ;
#609 = EDGE_LOOP ( 'NONE', ( #540, #675, #722, #340 ) ) ;
#610 = CARTESIAN_POINT ( 'NONE',  ( -0.4999999999999986122, -142.0122179973250525, 36.65516224687953439 ) ) ;
#611 = AXIS2_PLACEMENT_3D ( 'NONE', #634, #123, #698 ) ;
#612 = AXIS2_PLACEMENT_3D ( 'NONE', #463, #137, #787 ) ;
#613 = CARTESIAN_POINT ( 'NONE',  ( 2.696944823412208425, -142.1466596307001566, 36.29767993630130718 ) ) ;
#614 = DIRECTION ( 'NONE',  ( 1.529150442999980710E-16, 0.9396926207859077618, -0.3420201433256705448 ) ) ;
#615 = VERTEX_POINT ( 'NONE', #178 ) ;
#616 = DIRECTION ( 'NONE',  ( 1.529150442999980710E-16, 0.9396926207859077618, -0.3420201433256704893 ) ) ;
#617 = CARTESIAN_POINT ( 'NONE',  ( 5.599999999999998757, -155.8492290146044184, 35.30635575352723521 ) ) ;
#618 = CARTESIAN_POINT ( 'NONE',  ( -7.600000000000002309, -155.8492290146044184, 35.30635575352723521 ) ) ;
#619 = ORIENTED_EDGE ( 'NONE', *, *, #576, .T. ) ;
#620 = DIRECTION ( 'NONE',  ( -1.000000000000000000, -1.396218330916186547E-15, -4.363349910066098073E-15 ) ) ;
#621 = CARTESIAN_POINT ( 'NONE',  ( 2.900000000000008793, -142.3087800036587680, 35.84036483100952353 ) ) ;
#622 = DIRECTION ( 'NONE',  ( 1.000000000000000000, -1.436931387358583132E-16, 5.230002536813670399E-17 ) ) ;
#623 = ORIENTED_EDGE ( 'NONE', *, *, #684, .T. ) ;
#624 = CARTESIAN_POINT ( 'NONE',  ( 2.510837755761251788, -142.0965640023991909, 36.47570856804786388 ) ) ;
#625 = VECTOR ( 'NONE', #9, 1000.000000000000000 ) ;
#626 = VERTEX_POINT ( 'NONE', #435 ) ;
#627 = DIRECTION ( 'NONE',  ( -0.000000000000000000, 0.3420201433256705448, 0.9396926207859077618 ) ) ;
#628 = ADVANCED_FACE ( 'NONE', ( #115 ), #181, .F. ) ;
#629 = ORIENTED_EDGE ( 'NONE', *, *, #270, .F. ) ;
#630 = EDGE_CURVE ( 'NONE', #215, #708, #600, .T. ) ;
#631 = FACE_OUTER_BOUND ( 'NONE', #482, .T. ) ;
#632 = EDGE_LOOP ( 'NONE', ( #366, #773, #473, #782 ) ) ;
#633 = CARTESIAN_POINT ( 'NONE',  ( -3.900000000000003908, -142.0122179973250525, 36.65516224687952729 ) ) ;
#634 = CARTESIAN_POINT ( 'NONE',  ( -3.900000000000001688, -139.9110373266073566, 34.82621725344688457 ) ) ;
#635 = AXIS2_PLACEMENT_3D ( 'NONE', #43, #564, #825 ) ;
#636 = PRODUCT ( 'ThermallerPowerSwitchCAP', 'ThermallerPowerSwitchCAP', '', ( #392 ) ) ;
#637 = VECTOR ( 'NONE', #774, 1000.000000000000000 ) ;
#638 = VERTEX_POINT ( 'NONE', #327 ) ;
#639 = DIRECTION ( 'NONE',  ( 1.000000000000000000, 0.000000000000000000, 0.000000000000000000 ) ) ;
#640 = DIRECTION ( 'NONE',  ( -6.162975822039154730E-31, -0.3420201433256683798, -0.9396926207859085389 ) ) ;
#641 = VERTEX_POINT ( 'NONE', #457 ) ;
#642 = CARTESIAN_POINT ( 'NONE',  ( 5.599999999999997868, -153.4550880113247047, 41.88420409902862218 ) ) ;
#643 = DIRECTION ( 'NONE',  ( 1.529150442999980710E-16, 0.9396926207859077618, -0.3420201433256704893 ) ) ;
#644 = EDGE_LOOP ( 'NONE', ( #520, #228, #648, #299, #569, #623, #114, #619, #268, #705 ) ) ;
#645 = PLANE ( 'NONE',  #263 ) ;
#646 = EDGE_CURVE ( 'NONE', #742, #215, #193, .T. ) ;
#647 = DIRECTION ( 'NONE',  ( -4.577742506049847306E-15, 0.3420201433256724322, 0.9396926207859069846 ) ) ;
#648 = ORIENTED_EDGE ( 'NONE', *, *, #601, .T. ) ;
#649 = DIRECTION ( 'NONE',  ( -0.000000000000000000, -0.3420201433256705448, -0.9396926207859077618 ) ) ;
#650 = DIRECTION ( 'NONE',  ( 0.000000000000000000, -0.3420201433256698231, -0.9396926207859079838 ) ) ;
#651 = EDGE_LOOP ( 'NONE', ( #432, #191, #488, #106 ) ) ;
#652 = CARTESIAN_POINT ( 'NONE',  ( -4.900000000000003020, -140.9370977565843930, 32.00713939108914019 ) ) ;
#653 = FACE_OUTER_BOUND ( 'NONE', #736, .T. ) ;
#654 = VERTEX_POINT ( 'NONE', #20 ) ;
#655 = LINE ( 'NONE', #70, #745 ) ;
#656 = DIRECTION ( 'NONE',  ( 2.710505431213850325E-16, -0.9396926207859077618, 0.3420201433256705448 ) ) ;
#657 = CARTESIAN_POINT ( 'NONE',  ( -4.900000000000003020, -142.3542381406507218, 35.71546962609362197 ) ) ;
#658 = EDGE_CURVE ( 'NONE', #264, #364, #165, .T. ) ;
#659 = VECTOR ( 'NONE', #74, 1000.000000000000000 ) ;
#660 = ORIENTED_EDGE ( 'NONE', *, *, #195, .F. ) ;
#661 = AXIS2_PLACEMENT_3D ( 'NONE', #797, #733, #216 ) ;
#662 = DIRECTION ( 'NONE',  ( 3.706674093967524837E-16, -0.3420201433256704893, -0.9396926207859078728 ) ) ;
#663 = DIRECTION ( 'NONE',  ( -1.164362035342485569E-16, 0.000000000000000000, 1.000000000000000000 ) ) ;
#664 = EDGE_CURVE ( 'NONE', #749, #52, #677, .T. ) ;
#665 = APPLICATION_PROTOCOL_DEFINITION ( 'draft international standard', 'automotive_design', 1998, #164 ) ;
#666 = CARTESIAN_POINT ( 'NONE',  ( -3.900000000000001688, -143.8416753262391978, 32.00014139708485317 ) ) ;
#667 = ORIENTED_EDGE ( 'NONE', *, *, #542, .F. ) ;
#668 = FACE_OUTER_BOUND ( 'NONE', #559, .T. ) ;
#669 = CARTESIAN_POINT ( 'NONE',  ( 5.599999999999997868, -138.1933351570914965, 36.32938033736046890 ) ) ;
#670 = LINE ( 'NONE', #741, #388 ) ;
#671 = VERTEX_POINT ( 'NONE', #452 ) ;
#672 = CARTESIAN_POINT ( 'NONE',  ( 2.771986136752635943, -143.5552496306175101, 32.42077294266434251 ) ) ;
#673 =( NAMED_UNIT ( * ) SI_UNIT ( $, .STERADIAN. ) SOLID_ANGLE_UNIT ( ) );
#674 = CARTESIAN_POINT ( 'NONE',  ( -4.158417966638302765, -142.0842697118749527, 36.65446070546166624 ) ) ;
#675 = ORIENTED_EDGE ( 'NONE', *, *, #747, .F. ) ;
#676 = VECTOR ( 'NONE', #97, 999.9999999999998863 ) ;
#677 = CIRCLE ( 'NONE', #98, 4.000000000000028422 ) ;
#678 = CARTESIAN_POINT ( 'NONE',  ( 2.398476187782203617, -142.0823551570221639, 36.54931545820588923 ) ) ;
#679 = CARTESIAN_POINT ( 'NONE',  ( -1.499999999999998002, -116.7195146727843138, 108.4853370281500560 ) ) ;
#680 = VERTEX_POINT ( 'NONE', #253 ) ;
#681 =( NAMED_UNIT ( * ) PLANE_ANGLE_UNIT ( ) SI_UNIT ( $, .RADIAN. ) );
#682 = DIRECTION ( 'NONE',  ( -0.000000000000000000, 0.3420201433256668810, 0.9396926207859090940 ) ) ;
#683 = FACE_OUTER_BOUND ( 'NONE', #609, .T. ) ;
#684 = EDGE_CURVE ( 'NONE', #364, #768, #198, .T. ) ;
#685 = B_SPLINE_CURVE_WITH_KNOTS ( 'NONE', 3,
 ( #283, #355, #160, #806, #467, #350, #672, #36, #737, #210 ),
 .UNSPECIFIED., .F., .F.,
 ( 4, 2, 2, 2, 4 ),
 ( 4.336808689942017736E-19, 0.0003931127940244795080, 0.0007862255880489585824, 0.001179338382073437603, 0.001572451176097916731 ),
 .UNSPECIFIED. ) ;
#686 = ORIENTED_EDGE ( 'NONE', *, *, #124, .T. ) ;
#687 = CARTESIAN_POINT ( 'NONE',  ( 5.599999999999998757, -155.8492290146044184, 35.30635575352723521 ) ) ;
#688 = ADVANCED_FACE ( 'NONE', ( #205 ), #337, .F. ) ;
#689 = EDGE_CURVE ( 'NONE', #92, #174, #65, .T. ) ;
#690 = ORIENTED_EDGE ( 'NONE', *, *, #124, .F. ) ;
#691 = DIRECTION ( 'NONE',  ( 0.000000000000000000, 0.9396926207859077618, -0.3420201433256705448 ) ) ;
#692 = CLOSED_SHELL ( 'NONE', ( #561, #598, #324, #832, #515, #538, #729, #295, #521, #93, #381, #358, #761, #276, #230, #120, #153, #628, #64, #784, #713, #826, #688, #307, #472, #318 ) ) ;
#693 = EDGE_CURVE ( 'NONE', #731, #585, #265, .T. ) ;
#694 = ORIENTED_EDGE ( 'NONE', *, *, #816, .F. ) ;
#695 = CARTESIAN_POINT ( 'NONE',  ( -3.900000000000003908, -142.7639720939537540, 36.92877836154004711 ) ) ;
#696 = ORIENTED_EDGE ( 'NONE', *, *, #362, .T. ) ;
#697 = DIRECTION ( 'NONE',  ( 0.000000000000000000, 0.3420201433256683798, 0.9396926207859085389 ) ) ;
#698 = DIRECTION ( 'NONE',  ( 0.000000000000000000, -0.3420201433256816470, -0.9396926207859037650 ) ) ;
#699 = ORIENTED_EDGE ( 'NONE', *, *, #142, .T. ) ;
#700 = PLANE ( 'NONE',  #796 ) ;
#701 = EDGE_CURVE ( 'NONE', #384, #768, #397, .T. ) ;
#702 = CARTESIAN_POINT ( 'NONE',  ( 2.900000000000011013, -147.4810891970970488, 33.32477971625265667 ) ) ;
#703 = AXIS2_PLACEMENT_3D ( 'NONE', #408, #71, #84 ) ;
#704 = VECTOR ( 'NONE', #220, 1000.000000000000114 ) ;
#705 = ORIENTED_EDGE ( 'NONE', *, *, #588, .T. ) ;
#706 = CARTESIAN_POINT ( 'NONE',  ( -0.09999999999998472611, -139.0825875297382197, 33.88617952331710370 ) ) ;
#707 = DIRECTION ( 'NONE',  ( 3.252606517456490129E-16, 0.9396926207859079838, -0.3420201433256702117 ) ) ;
#708 = VERTEX_POINT ( 'NONE', #652 ) ;
#709 = CARTESIAN_POINT ( 'NONE',  ( 23.44999999999999929, -146.5432946777023915, 26.54517490185573436 ) ) ;
#710 = LINE ( 'NONE', #244, #418 ) ;
#711 = DIRECTION ( 'NONE',  ( 0.000000000000000000, 0.000000000000000000, 1.000000000000000000 ) ) ;
#712 = ORIENTED_EDGE ( 'NONE', *, *, #446, .F. ) ;
#713 = ADVANCED_FACE ( 'NONE', ( #522 ), #778, .F. ) ;
#714 = DIRECTION ( 'NONE',  ( 0.000000000000000000, 0.3420201433256683798, 0.9396926207859085389 ) ) ;
#715 = CARTESIAN_POINT ( 'NONE',  ( 0.000000000000000000, -133.7038235893524529, 48.66421199410378762 ) ) ;
#716 = VECTOR ( 'NONE', #571, 1000.000000000000000 ) ;
#717 = COLOUR_RGB ( '',0.7921568627450980005, 0.8196078431372548767, 0.9333333333333333481 ) ;
#718 = ORIENTED_EDGE ( 'NONE', *, *, #288, .F. ) ;
#719 = EDGE_CURVE ( 'NONE', #248, #671, #8, .T. ) ;
#720 = DIRECTION ( 'NONE',  ( -1.873544649899903038E-30, 0.3420201433256683798, 0.9396926207859085389 ) ) ;
#721 = CARTESIAN_POINT ( 'NONE',  ( -1.499999999999998002, -144.4740728105821006, 32.23031525761049920 ) ) ;
#722 = ORIENTED_EDGE ( 'NONE', *, *, #646, .T. ) ;
#723 = FACE_OUTER_BOUND ( 'NONE', #651, .T. ) ;
#724 = FACE_BOUND ( 'NONE', #136, .T. ) ;
#725 = EDGE_CURVE ( 'NONE', #641, #708, #583, .T. ) ;
#726 = DIRECTION ( 'NONE',  ( 1.000000000000000000, 0.000000000000000000, -0.000000000000000000 ) ) ;
#727 = DIRECTION ( 'NONE',  ( 3.706674093967524344E-16, -0.3420201433256704893, -0.9396926207859077618 ) ) ;
#728 = PLANE ( 'NONE',  #184 ) ;
#729 = ADVANCED_FACE ( 'NONE', ( #73 ), #645, .F. ) ;
#730 = ORIENTED_EDGE ( 'NONE', *, *, #445, .T. ) ;
#731 = VERTEX_POINT ( 'NONE', #130 ) ;
#732 = VECTOR ( 'NONE', #727, 1000.000000000000114 ) ;
#733 = DIRECTION ( 'NONE',  ( 1.000000000000000000, 2.547041952311780166E-16, -9.270474560687694732E-17 ) ) ;
#734 = CARTESIAN_POINT ( 'NONE',  ( -0.09999999999998585021, -145.5671533724316191, 34.33084848174014070 ) ) ;
#735 = LINE ( 'NONE', #28, #676 ) ;
#736 = EDGE_LOOP ( 'NONE', ( #686, #437, #730, #387 ) ) ;
#737 = CARTESIAN_POINT ( 'NONE',  ( 2.900000000000008793, -143.4257548222218190, 32.77150173890805718 ) ) ;
#738 = CARTESIAN_POINT ( 'NONE',  ( -1.900000000000009459, -142.0896039162531679, 34.98064398195923985 ) ) ;
#739 = ORIENTED_EDGE ( 'NONE', *, *, #751, .F. ) ;
#740 = CARTESIAN_POINT ( 'NONE',  ( -0.09999999999998472611, -139.0825875297382197, 33.88617952331710370 ) ) ;
#741 = CARTESIAN_POINT ( 'NONE',  ( -1.900000000000008349, -139.0825875297382197, 33.88617952331710370 ) ) ;
#742 = VERTEX_POINT ( 'NONE', #127 ) ;
#743 = CARTESIAN_POINT ( 'NONE',  ( -0.4999999999999983902, -144.4740728105821006, 32.23031525761049920 ) ) ;
#744 = CIRCLE ( 'NONE', #635, 1.000000000000007550 ) ;
#745 = VECTOR ( 'NONE', #260, 1000.000000000000114 ) ;
#746 = CARTESIAN_POINT ( 'NONE',  ( 1.900000000000007905, -142.1315746096108512, 36.69860450101442240 ) ) ;
#747 = EDGE_CURVE ( 'NONE', #742, #641, #3, .T. ) ;
#748 = DIRECTION ( 'NONE',  ( -0.000000000000000000, -0.3420201433256704893, -0.9396926207859077618 ) ) ;
#749 = VERTEX_POINT ( 'NONE', #783 ) ;
#750 = SURFACE_STYLE_USAGE ( .BOTH. , #558 ) ;
#751 = EDGE_CURVE ( 'NONE', #790, #92, #655, .T. ) ;
#752 = VERTEX_POINT ( 'NONE', #527 ) ;
#753 = CARTESIAN_POINT ( 'NONE',  ( 5.599999999999997868, -139.2269970399559327, 36.70560249501868810 ) ) ;
#754 = ORIENTED_EDGE ( 'NONE', *, *, #4, .T. ) ;
#755 = PLANE ( 'NONE',  #419 ) ;
#756 =( GEOMETRIC_REPRESENTATION_CONTEXT ( 3 ) GLOBAL_UNCERTAINTY_ASSIGNED_CONTEXT ( ( #577 ) ) GLOBAL_UNIT_ASSIGNED_CONTEXT ( ( #547, #475, #673 ) ) REPRESENTATION_CONTEXT ( 'NONE', 'WORKASPACE' ) );
#757 = ORIENTED_EDGE ( 'NONE', *, *, #39, .T. ) ;
#758 = DIRECTION ( 'NONE',  ( 1.529150442999980710E-16, 0.9396926207859077618, -0.3420201433256704893 ) ) ;
#759 = LINE ( 'NONE', #310, #440 ) ;
#760 = EDGE_LOOP ( 'NONE', ( #286, #754, #805, #712 ) ) ;
#761 = ADVANCED_FACE ( 'NONE', ( #460, #723 ), #331, .T. ) ;
#762 = DIRECTION ( 'NONE',  ( -1.000000000000000000, -0.000000000000000000, -0.000000000000000000 ) ) ;
#763 = LINE ( 'NONE', #182, #811 ) ;
#764 = ORIENTED_EDGE ( 'NONE', *, *, #776, .T. ) ;
#765 = DIRECTION ( 'NONE',  ( 1.000000000000000000, -1.238954173989170581E-15, -3.403998616774279863E-15 ) ) ;
#766 = LINE ( 'NONE', #187, #162 ) ;
#767 = VECTOR ( 'NONE', #369, 1000.000000000000227 ) ;
#768 = VERTEX_POINT ( 'NONE', #422 ) ;
#769 = DIRECTION ( 'NONE',  ( 1.803374990528834103E-16, 0.9396926207859090940, -0.3420201433256668810 ) ) ;
#770 = B_SPLINE_CURVE_WITH_KNOTS ( 'NONE', 3,
 ( #657, #34, #533, #544, #414, #405, #539, #674, #221, #335 ),
 .UNSPECIFIED., .F., .F.,
 ( 4, 2, 2, 2, 4 ),
 ( 7.152448122690996019E-18, 0.0003930787751366326618, 0.0007861575502732581679, 0.001179236325409883674, 0.001572315100546509180 ),
 .UNSPECIFIED. ) ;
#771 = CARTESIAN_POINT ( 'NONE',  ( -0.4999999999999970024, -146.5432946777023915, 26.54517490185573436 ) ) ;
#772 = EDGE_CURVE ( 'NONE', #615, #18, #550, .T. ) ;
#773 = ORIENTED_EDGE ( 'NONE', *, *, #353, .T. ) ;
#774 = DIRECTION ( 'NONE',  ( 1.529150442999980710E-16, 0.9396926207859077618, -0.3420201433256705448 ) ) ;
#775 = LINE ( 'NONE', #792, #13 ) ;
#776 = EDGE_CURVE ( 'NONE', #126, #680, #483, .T. ) ;
#777 = ORIENTED_EDGE ( 'NONE', *, *, #476, .F. ) ;
#778 = CYLINDRICAL_SURFACE ( 'NONE', #200, 4.000000000000028422 ) ;
#779 = LINE ( 'NONE', #395, #79 ) ;
#780 = CIRCLE ( 'NONE', #611, 1.000000000000004219 ) ;
#781 = CIRCLE ( 'NONE', #304, 1.000000000000004219 ) ;
#782 = ORIENTED_EDGE ( 'NONE', *, *, #509, .F. ) ;
#783 = CARTESIAN_POINT ( 'NONE',  ( -3.900000000000001688, -143.8416753262391978, 32.00014139708485317 ) ) ;
#784 = ADVANCED_FACE ( 'NONE', ( #668 ), #553, .F. ) ;
#785 = CARTESIAN_POINT ( 'NONE',  ( -0.4999999999999947820, -153.3495980569085191, 40.78163112313111327 ) ) ;
#786 = CARTESIAN_POINT ( 'NONE',  ( -4.510192478527203619, -143.6718077142885761, 32.14794005231797058 ) ) ;
#787 = DIRECTION ( 'NONE',  ( 0.000000000000000000, 0.9396926207859090940, -0.3420201433256668810 ) ) ;
#788 = DIRECTION ( 'NONE',  ( -3.239845002813822172E-16, 0.000000000000000000, 1.000000000000000000 ) ) ;
#789 = VERTEX_POINT ( 'NONE', #610 ) ;
#790 = VERTEX_POINT ( 'NONE', #411 ) ;
#791 = DIRECTION ( 'NONE',  ( -1.239088197126285887E-16, 0.3420201433256698231, 0.9396926207859079838 ) ) ;
#792 = CARTESIAN_POINT ( 'NONE',  ( -1.900000000000008793, -142.0896039162531679, 34.98064398195922564 ) ) ;
#793 = ORIENTED_EDGE ( 'NONE', *, *, #701, .T. ) ;
#794 = CIRCLE ( 'NONE', #390, 4.000000000000028422 ) ;
#795 = VERTEX_POINT ( 'NONE', #810 ) ;
#796 = AXIS2_PLACEMENT_3D ( 'NONE', #50, #627, #298 ) ;
#797 = CARTESIAN_POINT ( 'NONE',  ( -0.4999999999999983902, -116.7195146727843138, 108.4853370281500560 ) ) ;
#798 = DIRECTION ( 'NONE',  ( 1.803374990528834103E-16, 0.9396926207859090940, -0.3420201433256668810 ) ) ;
#799 = PRODUCT_DEFINITION ( 'UNKNOWN', '', #470, #821 ) ;
#800 = CARTESIAN_POINT ( 'NONE',  ( -2.499999999999998668, -144.4740728105820722, 32.23031525761048499 ) ) ;
#801 = EDGE_LOOP ( 'NONE', ( #354, #259, #352, #777 ) ) ;
#802 = CARTESIAN_POINT ( 'NONE',  ( -1.900000000000009459, -144.9515171144454087, 36.02229519915479727 ) ) ;
#803 = DIRECTION ( 'NONE',  ( 0.000000000000000000, 0.3420201433256692680, 0.9396926207859083169 ) ) ;
#804 = VERTEX_POINT ( 'NONE', #31 ) ;
#805 = ORIENTED_EDGE ( 'NONE', *, *, #25, .T. ) ;
#806 = CARTESIAN_POINT ( 'NONE',  ( 2.398378885968796670, -143.7080566033901334, 32.08270640188738554 ) ) ;
#807 = CARTESIAN_POINT ( 'NONE',  ( 2.158417966638307206, -142.0842697118749527, 36.65446070546166624 ) ) ;
#808 = CARTESIAN_POINT ( 'NONE',  ( 2.900000000000008349, -141.4775550423927655, 38.12413664257488222 ) ) ;
#809 = ORIENTED_EDGE ( 'NONE', *, *, #112, .F. ) ;
#810 = CARTESIAN_POINT ( 'NONE',  ( -7.600000000000002309, -138.1933351570914965, 36.32938033736046890 ) ) ;
#811 = VECTOR ( 'NONE', #501, 1000.000000000000000 ) ;
#812 = AXIS2_PLACEMENT_3D ( 'NONE', #95, #682, #554 ) ;
#813 = EDGE_CURVE ( 'NONE', #671, #429, #100, .T. ) ;
#814 = AXIS2_PLACEMENT_3D ( 'NONE', #320, #711, #532 ) ;
#815 = ORIENTED_EDGE ( 'NONE', *, *, #207, .T. ) ;
#816 = EDGE_CURVE ( 'NONE', #466, #575, #685, .T. ) ;
#817 = DIRECTION ( 'NONE',  ( -0.000000000000000000, 0.3420201433256704893, 0.9396926207859077618 ) ) ;
#818 = VERTEX_POINT ( 'NONE', #151 ) ;
#819 = DIRECTION ( 'NONE',  ( -1.239088197126285640E-16, 0.3420201433256699897, 0.9396926207859078728 ) ) ;
#820 = ORIENTED_EDGE ( 'NONE', *, *, #385, .F. ) ;
#821 = PRODUCT_DEFINITION_CONTEXT ( 'detailed design', #567, 'design' ) ;
#822 = VECTOR ( 'NONE', #425, 1000.000000000000000 ) ;
#823 = CARTESIAN_POINT ( 'NONE',  ( -1.900000000000001243, -145.5671533724316191, 34.33084848174014780 ) ) ;
#824 = STYLED_ITEM ( 'NONE', ( #360 ), #426 ) ;
#825 = DIRECTION ( 'NONE',  ( 0.000000000000000000, -0.3420201433256804813, -0.9396926207859040980 ) ) ;
#826 = ADVANCED_FACE ( 'NONE', ( #41 ), #546, .F. ) ;
#827 = VERTEX_POINT ( 'NONE', #407 ) ;
#828 = DIRECTION ( 'NONE',  ( 0.000000000000000000, 0.3420201433256816470, 0.9396926207859037650 ) ) ;
#829 = LINE ( 'NONE', #241, #822 ) ;
#830 = ORIENTED_EDGE ( 'NONE', *, *, #176, .F. ) ;
#831 = DIRECTION ( 'NONE',  ( 0.000000000000000000, 0.3420201433256705448, 0.9396926207859077618 ) ) ;
#832 = ADVANCED_FACE ( 'NONE', ( #219 ), #88, .T. ) ;
#833 = LINE ( 'NONE', #116, #485 ) ;
#834 = ORIENTED_EDGE ( 'NONE', *, *, #173, .F. ) ;
#835 = CARTESIAN_POINT ( 'NONE',  ( 2.900000000000008793, -139.9110373266073566, 34.82621725344688457 ) ) ;
#836 = EDGE_CURVE ( 'NONE', #790, #795, #24, .T. ) ;
#837 = CARTESIAN_POINT ( 'NONE',  ( 5.599999999999998757, -141.6211380432356464, 30.12775414951730824 ) ) ;
ENDSEC;
END-ISO-10303-21;
